solid OpenSCAD_Model
  facet normal -1 0 0
    outer loop
      vertex 0 0 0
      vertex 0 9.5 7
      vertex 0 9.5 0
    endloop
  endfacet
  facet normal -1 -0 0
    outer loop
      vertex 0 9.5 7
      vertex 0 0 0
      vertex 0 0 7
    endloop
  endfacet
  facet normal 0 1 -0
    outer loop
      vertex 11 9.5 0
      vertex 0 9.5 7
      vertex 11 9.5 7
    endloop
  endfacet
  facet normal 0 1 0
    outer loop
      vertex 0 9.5 7
      vertex 11 9.5 0
      vertex 0 9.5 0
    endloop
  endfacet
  facet normal 1 -0 0
    outer loop
      vertex 11 0 7
      vertex 11 9.5 0
      vertex 11 9.5 7
    endloop
  endfacet
  facet normal 1 0 0
    outer loop
      vertex 11 9.5 0
      vertex 11 0 7
      vertex 11 0 0
    endloop
  endfacet
  facet normal 0 -1 0
    outer loop
      vertex 0 0 0
      vertex 11 0 7
      vertex 0 0 7
    endloop
  endfacet
  facet normal 0 -1 -0
    outer loop
      vertex 11 0 7
      vertex 0 0 0
      vertex 11 0 0
    endloop
  endfacet
  facet normal -0 0 1
    outer loop
      vertex 0 9.5 7
      vertex 11 0 7
      vertex 11 9.5 7
    endloop
  endfacet
  facet normal 0 0 1
    outer loop
      vertex 11 0 7
      vertex 0 9.5 7
      vertex 0 0 7
    endloop
  endfacet
  facet normal 0 0 -1
    outer loop
      vertex 11 0 0
      vertex 10 1 0
      vertex 11 9.5 0
    endloop
  endfacet
  facet normal 0 0 -1
    outer loop
      vertex 11 0 0
      vertex 1 1 0
      vertex 10 1 0
    endloop
  endfacet
  facet normal -0 0 -1
    outer loop
      vertex 1 1 0
      vertex 0 0 0
      vertex 1 8.5 0
    endloop
  endfacet
  facet normal 0 0 -1
    outer loop
      vertex 0 0 0
      vertex 1 1 0
      vertex 11 0 0
    endloop
  endfacet
  facet normal 0 0 -1
    outer loop
      vertex 10 8.5 0
      vertex 11 9.5 0
      vertex 10 1 0
    endloop
  endfacet
  facet normal 0 0 -1
    outer loop
      vertex 1 8.5 0
      vertex 11 9.5 0
      vertex 10 8.5 0
    endloop
  endfacet
  facet normal 0 0 -1
    outer loop
      vertex 1 8.5 0
      vertex 0 9.5 0
      vertex 11 9.5 0
    endloop
  endfacet
  facet normal 0 0 -1
    outer loop
      vertex 0 9.5 0
      vertex 1 8.5 0
      vertex 0 0 0
    endloop
  endfacet
  facet normal 1 -0 0
    outer loop
      vertex 1 1 4.5
      vertex 1 8.5 0
      vertex 1 8.5 4.5
    endloop
  endfacet
  facet normal 1 0 0
    outer loop
      vertex 1 8.5 0
      vertex 1 1 4.5
      vertex 1 1 0
    endloop
  endfacet
  facet normal 0 -1 0
    outer loop
      vertex 1 8.5 0
      vertex 10 8.5 4.5
      vertex 1 8.5 4.5
    endloop
  endfacet
  facet normal 0 -1 -0
    outer loop
      vertex 10 8.5 4.5
      vertex 1 8.5 0
      vertex 10 8.5 0
    endloop
  endfacet
  facet normal -1 0 0
    outer loop
      vertex 10 1 0
      vertex 10 8.5 4.5
      vertex 10 8.5 0
    endloop
  endfacet
  facet normal -1 -0 0
    outer loop
      vertex 10 8.5 4.5
      vertex 10 1 0
      vertex 10 1 4.5
    endloop
  endfacet
  facet normal 0 1 -0
    outer loop
      vertex 10 1 0
      vertex 1 1 4.5
      vertex 10 1 4.5
    endloop
  endfacet
  facet normal 0 1 0
    outer loop
      vertex 1 1 4.5
      vertex 10 1 0
      vertex 1 1 0
    endloop
  endfacet
  facet normal 0 0 -1
    outer loop
      vertex 10 1 4.5
      vertex 8.75 4.75 4.5
      vertex 10 8.5 4.5
    endloop
  endfacet
  facet normal 0 0 -1
    outer loop
      vertex 10 1 4.5
      vertex 8.59093 3.74569 4.5
      vertex 8.75 4.75 4.5
    endloop
  endfacet
  facet normal 0 0 -1
    outer loop
      vertex 10 1 4.5
      vertex 8.1293 2.8397 4.5
      vertex 8.59093 3.74569 4.5
    endloop
  endfacet
  facet normal 0 0 -1
    outer loop
      vertex 10 1 4.5
      vertex 7.4103 2.12069 4.5
      vertex 8.1293 2.8397 4.5
    endloop
  endfacet
  facet normal 0 0 -1
    outer loop
      vertex 10 1 4.5
      vertex 6.5043 1.65907 4.5
      vertex 7.4103 2.12069 4.5
    endloop
  endfacet
  facet normal 0 0 -1
    outer loop
      vertex 10 1 4.5
      vertex 5.5 1.5 4.5
      vertex 6.5043 1.65907 4.5
    endloop
  endfacet
  facet normal -0 0 -1
    outer loop
      vertex 2.40907 3.74569 4.5
      vertex 1 1 4.5
      vertex 2.25 4.75 4.5
    endloop
  endfacet
  facet normal -0 0 -1
    outer loop
      vertex 2.87069 2.8397 4.5
      vertex 1 1 4.5
      vertex 2.40907 3.74569 4.5
    endloop
  endfacet
  facet normal -0 0 -1
    outer loop
      vertex 3.5897 2.12069 4.5
      vertex 1 1 4.5
      vertex 2.87069 2.8397 4.5
    endloop
  endfacet
  facet normal -0 0 -1
    outer loop
      vertex 4.49569 1.65907 4.5
      vertex 1 1 4.5
      vertex 3.5897 2.12069 4.5
    endloop
  endfacet
  facet normal -0 0 -1
    outer loop
      vertex 5.5 1.5 4.5
      vertex 1 1 4.5
      vertex 4.49569 1.65907 4.5
    endloop
  endfacet
  facet normal 0 0 -1
    outer loop
      vertex 1 1 4.5
      vertex 5.5 1.5 4.5
      vertex 10 1 4.5
    endloop
  endfacet
  facet normal 0 0 -1
    outer loop
      vertex 8.59093 5.7543 4.5
      vertex 10 8.5 4.5
      vertex 8.75 4.75 4.5
    endloop
  endfacet
  facet normal 0 0 -1
    outer loop
      vertex 8.1293 6.6603 4.5
      vertex 10 8.5 4.5
      vertex 8.59093 5.7543 4.5
    endloop
  endfacet
  facet normal 0 0 -1
    outer loop
      vertex 7.4103 7.3793 4.5
      vertex 10 8.5 4.5
      vertex 8.1293 6.6603 4.5
    endloop
  endfacet
  facet normal 0 0 -1
    outer loop
      vertex 6.5043 7.84093 4.5
      vertex 10 8.5 4.5
      vertex 7.4103 7.3793 4.5
    endloop
  endfacet
  facet normal 0 0 -1
    outer loop
      vertex 5.5 8 4.5
      vertex 10 8.5 4.5
      vertex 6.5043 7.84093 4.5
    endloop
  endfacet
  facet normal 0 0 -1
    outer loop
      vertex 1 8.5 4.5
      vertex 2.25 4.75 4.5
      vertex 1 1 4.5
    endloop
  endfacet
  facet normal 0 0 -1
    outer loop
      vertex 5.5 8 4.5
      vertex 1 8.5 4.5
      vertex 10 8.5 4.5
    endloop
  endfacet
  facet normal 0 0 -1
    outer loop
      vertex 4.49569 7.84093 4.5
      vertex 1 8.5 4.5
      vertex 5.5 8 4.5
    endloop
  endfacet
  facet normal 0 0 -1
    outer loop
      vertex 3.5897 7.3793 4.5
      vertex 1 8.5 4.5
      vertex 4.49569 7.84093 4.5
    endloop
  endfacet
  facet normal 0 0 -1
    outer loop
      vertex 2.87069 6.6603 4.5
      vertex 1 8.5 4.5
      vertex 3.5897 7.3793 4.5
    endloop
  endfacet
  facet normal 0 0 -1
    outer loop
      vertex 2.40907 5.7543 4.5
      vertex 1 8.5 4.5
      vertex 2.87069 6.6603 4.5
    endloop
  endfacet
  facet normal 0 0 -1
    outer loop
      vertex 2.25 4.75 4.5
      vertex 1 8.5 4.5
      vertex 2.40907 5.7543 4.5
    endloop
  endfacet
  facet normal -0.987688 0.156437 0
    outer loop
      vertex 8.59093 3.74569 4.5
      vertex 8.75 4.75 5.5
      vertex 8.75 4.75 4.5
    endloop
  endfacet
  facet normal -0.987688 0.156437 0
    outer loop
      vertex 8.75 4.75 5.5
      vertex 8.59093 3.74569 4.5
      vertex 8.59093 3.74569 5.5
    endloop
  endfacet
  facet normal 0.156437 0.987688 -0
    outer loop
      vertex 5.5 1.5 4.5
      vertex 4.49569 1.65907 5.5
      vertex 5.5 1.5 5.5
    endloop
  endfacet
  facet normal 0.156437 0.987688 0
    outer loop
      vertex 4.49569 1.65907 5.5
      vertex 5.5 1.5 4.5
      vertex 4.49569 1.65907 4.5
    endloop
  endfacet
  facet normal -0.156439 -0.987688 0
    outer loop
      vertex 5.5 8 4.5
      vertex 6.5043 7.84093 5.5
      vertex 5.5 8 5.5
    endloop
  endfacet
  facet normal -0.156439 -0.987688 -0
    outer loop
      vertex 6.5043 7.84093 5.5
      vertex 5.5 8 4.5
      vertex 6.5043 7.84093 4.5
    endloop
  endfacet
  facet normal -0.45399 -0.891007 0
    outer loop
      vertex 6.5043 7.84093 4.5
      vertex 7.4103 7.3793 5.5
      vertex 6.5043 7.84093 5.5
    endloop
  endfacet
  facet normal -0.45399 -0.891007 -0
    outer loop
      vertex 7.4103 7.3793 5.5
      vertex 6.5043 7.84093 4.5
      vertex 7.4103 7.3793 4.5
    endloop
  endfacet
  facet normal -0.707112 0.707102 0
    outer loop
      vertex 7.4103 2.12069 4.5
      vertex 8.1293 2.8397 5.5
      vertex 8.1293 2.8397 4.5
    endloop
  endfacet
  facet normal -0.707112 0.707102 0
    outer loop
      vertex 8.1293 2.8397 5.5
      vertex 7.4103 2.12069 4.5
      vertex 7.4103 2.12069 5.5
    endloop
  endfacet
  facet normal -0.891005 0.453994 0
    outer loop
      vertex 8.1293 2.8397 4.5
      vertex 8.59093 3.74569 5.5
      vertex 8.59093 3.74569 4.5
    endloop
  endfacet
  facet normal -0.891005 0.453994 0
    outer loop
      vertex 8.59093 3.74569 5.5
      vertex 8.1293 2.8397 4.5
      vertex 8.1293 2.8397 5.5
    endloop
  endfacet
  facet normal 0.707107 0.707107 0
    outer loop
      vertex 3.5897 2.12069 5.5
      vertex 2.87069 2.8397 4.5
      vertex 2.87069 2.8397 5.5
    endloop
  endfacet
  facet normal 0.707107 0.707107 0
    outer loop
      vertex 2.87069 2.8397 4.5
      vertex 3.5897 2.12069 5.5
      vertex 3.5897 2.12069 4.5
    endloop
  endfacet
  facet normal 0.891008 0.453987 0
    outer loop
      vertex 2.87069 2.8397 5.5
      vertex 2.40907 3.74569 4.5
      vertex 2.40907 3.74569 5.5
    endloop
  endfacet
  facet normal 0.891008 0.453987 0
    outer loop
      vertex 2.40907 3.74569 4.5
      vertex 2.87069 2.8397 5.5
      vertex 2.87069 2.8397 4.5
    endloop
  endfacet
  facet normal 0.453987 0.891008 -0
    outer loop
      vertex 4.49569 1.65907 4.5
      vertex 3.5897 2.12069 5.5
      vertex 4.49569 1.65907 5.5
    endloop
  endfacet
  facet normal 0.453987 0.891008 0
    outer loop
      vertex 3.5897 2.12069 5.5
      vertex 4.49569 1.65907 4.5
      vertex 3.5897 2.12069 4.5
    endloop
  endfacet
  facet normal -0.156439 0.987688 0
    outer loop
      vertex 6.5043 1.65907 4.5
      vertex 5.5 1.5 5.5
      vertex 6.5043 1.65907 5.5
    endloop
  endfacet
  facet normal -0.156439 0.987688 0
    outer loop
      vertex 5.5 1.5 5.5
      vertex 6.5043 1.65907 4.5
      vertex 5.5 1.5 4.5
    endloop
  endfacet
  facet normal -0.453983 0.891011 0
    outer loop
      vertex 7.4103 2.12069 4.5
      vertex 6.5043 1.65907 5.5
      vertex 7.4103 2.12069 5.5
    endloop
  endfacet
  facet normal -0.453983 0.891011 0
    outer loop
      vertex 6.5043 1.65907 5.5
      vertex 7.4103 2.12069 4.5
      vertex 6.5043 1.65907 4.5
    endloop
  endfacet
  facet normal 0 0 -1
    outer loop
      vertex 8.59093 3.74569 5.5
      vertex 8.59093 5.7543 5.5
      vertex 8.75 4.75 5.5
    endloop
  endfacet
  facet normal 0 0 -1
    outer loop
      vertex 8.1293 2.8397 5.5
      vertex 8.59093 5.7543 5.5
      vertex 8.59093 3.74569 5.5
    endloop
  endfacet
  facet normal 0 0 -1
    outer loop
      vertex 8.1293 2.8397 5.5
      vertex 8.1293 6.6603 5.5
      vertex 8.59093 5.7543 5.5
    endloop
  endfacet
  facet normal 0 0 -1
    outer loop
      vertex 7.4103 2.12069 5.5
      vertex 8.1293 6.6603 5.5
      vertex 8.1293 2.8397 5.5
    endloop
  endfacet
  facet normal 0 0 -1
    outer loop
      vertex 7.4103 2.12069 5.5
      vertex 7.4103 7.3793 5.5
      vertex 8.1293 6.6603 5.5
    endloop
  endfacet
  facet normal 0 0 -1
    outer loop
      vertex 6.5043 1.65907 5.5
      vertex 7.4103 7.3793 5.5
      vertex 7.4103 2.12069 5.5
    endloop
  endfacet
  facet normal 0 0 -1
    outer loop
      vertex 6.5043 1.65907 5.5
      vertex 6.5043 7.84093 5.5
      vertex 7.4103 7.3793 5.5
    endloop
  endfacet
  facet normal 0 0 -1
    outer loop
      vertex 5.5 1.5 5.5
      vertex 6.5043 7.84093 5.5
      vertex 6.5043 1.65907 5.5
    endloop
  endfacet
  facet normal 0 0 -1
    outer loop
      vertex 5.5 1.5 5.5
      vertex 5.5 8 5.5
      vertex 6.5043 7.84093 5.5
    endloop
  endfacet
  facet normal 0 0 -1
    outer loop
      vertex 4.49569 1.65907 5.5
      vertex 5.5 8 5.5
      vertex 5.5 1.5 5.5
    endloop
  endfacet
  facet normal 0 0 -1
    outer loop
      vertex 4.49569 1.65907 5.5
      vertex 4.49569 7.84093 5.5
      vertex 5.5 8 5.5
    endloop
  endfacet
  facet normal 0 0 -1
    outer loop
      vertex 3.5897 2.12069 5.5
      vertex 4.49569 7.84093 5.5
      vertex 4.49569 1.65907 5.5
    endloop
  endfacet
  facet normal 0 0 -1
    outer loop
      vertex 3.5897 2.12069 5.5
      vertex 3.5897 7.3793 5.5
      vertex 4.49569 7.84093 5.5
    endloop
  endfacet
  facet normal 0 0 -1
    outer loop
      vertex 2.87069 2.8397 5.5
      vertex 3.5897 7.3793 5.5
      vertex 3.5897 2.12069 5.5
    endloop
  endfacet
  facet normal 0 0 -1
    outer loop
      vertex 2.87069 2.8397 5.5
      vertex 2.87069 6.6603 5.5
      vertex 3.5897 7.3793 5.5
    endloop
  endfacet
  facet normal 0 0 -1
    outer loop
      vertex 2.40907 3.74569 5.5
      vertex 2.87069 6.6603 5.5
      vertex 2.87069 2.8397 5.5
    endloop
  endfacet
  facet normal 0 0 -1
    outer loop
      vertex 2.40907 3.74569 5.5
      vertex 2.40907 5.7543 5.5
      vertex 2.87069 6.6603 5.5
    endloop
  endfacet
  facet normal 0 -0 -1
    outer loop
      vertex 2.40907 5.7543 5.5
      vertex 2.40907 3.74569 5.5
      vertex 2.25 4.75 5.5
    endloop
  endfacet
  facet normal 0.987688 0.156437 0
    outer loop
      vertex 2.40907 3.74569 5.5
      vertex 2.25 4.75 4.5
      vertex 2.25 4.75 5.5
    endloop
  endfacet
  facet normal 0.987688 0.156437 0
    outer loop
      vertex 2.25 4.75 4.5
      vertex 2.40907 3.74569 5.5
      vertex 2.40907 3.74569 4.5
    endloop
  endfacet
  facet normal 0.891011 -0.453983 0
    outer loop
      vertex 2.40907 5.7543 5.5
      vertex 2.87069 6.6603 4.5
      vertex 2.87069 6.6603 5.5
    endloop
  endfacet
  facet normal 0.891011 -0.453983 0
    outer loop
      vertex 2.87069 6.6603 4.5
      vertex 2.40907 5.7543 5.5
      vertex 2.40907 5.7543 4.5
    endloop
  endfacet
  facet normal -0.707107 -0.707107 0
    outer loop
      vertex 8.1293 6.6603 4.5
      vertex 7.4103 7.3793 5.5
      vertex 7.4103 7.3793 4.5
    endloop
  endfacet
  facet normal -0.707107 -0.707107 0
    outer loop
      vertex 7.4103 7.3793 5.5
      vertex 8.1293 6.6603 4.5
      vertex 8.1293 6.6603 5.5
    endloop
  endfacet
  facet normal -0.891007 -0.45399 0
    outer loop
      vertex 8.59093 5.7543 4.5
      vertex 8.1293 6.6603 5.5
      vertex 8.1293 6.6603 4.5
    endloop
  endfacet
  facet normal -0.891007 -0.45399 0
    outer loop
      vertex 8.1293 6.6603 5.5
      vertex 8.59093 5.7543 4.5
      vertex 8.59093 5.7543 5.5
    endloop
  endfacet
  facet normal 0.987688 -0.156439 0
    outer loop
      vertex 2.25 4.75 5.5
      vertex 2.40907 5.7543 4.5
      vertex 2.40907 5.7543 5.5
    endloop
  endfacet
  facet normal 0.987688 -0.156439 0
    outer loop
      vertex 2.40907 5.7543 4.5
      vertex 2.25 4.75 5.5
      vertex 2.25 4.75 4.5
    endloop
  endfacet
  facet normal 0.707102 -0.707112 0
    outer loop
      vertex 2.87069 6.6603 5.5
      vertex 3.5897 7.3793 4.5
      vertex 3.5897 7.3793 5.5
    endloop
  endfacet
  facet normal 0.707102 -0.707112 0
    outer loop
      vertex 3.5897 7.3793 4.5
      vertex 2.87069 6.6603 5.5
      vertex 2.87069 6.6603 4.5
    endloop
  endfacet
  facet normal -0.987688 -0.156439 0
    outer loop
      vertex 8.75 4.75 4.5
      vertex 8.59093 5.7543 5.5
      vertex 8.59093 5.7543 4.5
    endloop
  endfacet
  facet normal -0.987688 -0.156439 0
    outer loop
      vertex 8.59093 5.7543 5.5
      vertex 8.75 4.75 4.5
      vertex 8.75 4.75 5.5
    endloop
  endfacet
  facet normal 0.156437 -0.987688 0
    outer loop
      vertex 4.49569 7.84093 4.5
      vertex 5.5 8 5.5
      vertex 4.49569 7.84093 5.5
    endloop
  endfacet
  facet normal 0.156437 -0.987688 0
    outer loop
      vertex 5.5 8 5.5
      vertex 4.49569 7.84093 4.5
      vertex 5.5 8 4.5
    endloop
  endfacet
  facet normal 0.453994 -0.891005 0
    outer loop
      vertex 3.5897 7.3793 4.5
      vertex 4.49569 7.84093 5.5
      vertex 3.5897 7.3793 5.5
    endloop
  endfacet
  facet normal 0.453994 -0.891005 0
    outer loop
      vertex 4.49569 7.84093 5.5
      vertex 3.5897 7.3793 4.5
      vertex 4.49569 7.84093 4.5
    endloop
  endfacet
endsolid OpenSCAD_Model
