solid OpenSCAD_Model
  facet normal -1 0 0
    outer loop
      vertex 0 135 0
      vertex 0 134.707 1
      vertex 0 134.902 0.618033
    endloop
  endfacet
  facet normal -1 0 0
    outer loop
      vertex 0 9.99698 0
      vertex 0 134.707 1
      vertex 0 135 0
    endloop
  endfacet
  facet normal -1 -0 0
    outer loop
      vertex 0 134.707 1
      vertex 0 9.99698 0
      vertex 0 9.99698 1
    endloop
  endfacet
  facet normal 0 0 1
    outer loop
      vertex 0 9.99698 1
      vertex 3 134.707 1
      vertex 0 134.707 1
    endloop
  endfacet
  facet normal 0 0 1
    outer loop
      vertex 3 134.707 1
      vertex 0 9.99698 1
      vertex 3 6.99698 1
    endloop
  endfacet
  facet normal -0 0 1
    outer loop
      vertex 17 134.707 1
      vertex 20 9.99698 1
      vertex 20 134.707 1
    endloop
  endfacet
  facet normal 0 0 1
    outer loop
      vertex 20 9.99698 1
      vertex 17 134.707 1
      vertex 17 6.99698 1
    endloop
  endfacet
  facet normal 0 0 1
    outer loop
      vertex 7 2.99698 1
      vertex 13 2.99698 1
      vertex 13 134.707 1
    endloop
  endfacet
  facet normal 0 0 1
    outer loop
      vertex 13 2.99698 1
      vertex 7 2.99698 1
      vertex 10.003 0 1
    endloop
  endfacet
  facet normal 0 0 1
    outer loop
      vertex 7 2.99698 1
      vertex 13 134.707 1
      vertex 7 134.707 1
    endloop
  endfacet
  facet normal 0 0 1
    outer loop
      vertex 10.003 0 1
      vertex 7 2.99698 1
      vertex 9.99698 0 1
    endloop
  endfacet
  facet normal 1 0 0
    outer loop
      vertex 20 134.707 1
      vertex 20 135 0
      vertex 20 134.902 0.618033
    endloop
  endfacet
  facet normal 1 0 0
    outer loop
      vertex 20 9.99698 0
      vertex 20 134.707 1
      vertex 20 9.99698 1
    endloop
  endfacet
  facet normal 1 0 0
    outer loop
      vertex 20 134.707 1
      vertex 20 9.99698 0
      vertex 20 135 0
    endloop
  endfacet
  facet normal 0 0 -1
    outer loop
      vertex 0 9.99698 0
      vertex 20 9.99698 0
      vertex 10.003 0 0
    endloop
  endfacet
  facet normal 0 0 -1
    outer loop
      vertex 0 9.99698 0
      vertex 10.003 0 0
      vertex 9.99698 0 0
    endloop
  endfacet
  facet normal 0 0 -1
    outer loop
      vertex 20 9.99698 0
      vertex 0 9.99698 0
      vertex 20 135 0
    endloop
  endfacet
  facet normal -0 0 -1
    outer loop
      vertex 20 135 0
      vertex 0 9.99698 0
      vertex 0 135 0
    endloop
  endfacet
  facet normal 0 -1 0
    outer loop
      vertex 9.99698 0 0
      vertex 10.003 0 1
      vertex 9.99698 0 1
    endloop
  endfacet
  facet normal 0 -1 -0
    outer loop
      vertex 10.003 0 1
      vertex 9.99698 0 0
      vertex 10.003 0 0
    endloop
  endfacet
  facet normal -1 0 0
    outer loop
      vertex 3 134.707 1
      vertex 3 134.176 1.61803
      vertex 3 134.618 1.17557
    endloop
  endfacet
  facet normal -1 0 0
    outer loop
      vertex 3 134.707 1
      vertex 3 133.618 1.90211
      vertex 3 134.176 1.61803
    endloop
  endfacet
  facet normal -1 0 0
    outer loop
      vertex 3 134.707 1
      vertex 3 133 2
      vertex 3 133.618 1.90211
    endloop
  endfacet
  facet normal -1 0 0
    outer loop
      vertex 3 6.99698 1
      vertex 3 133 2
      vertex 3 134.707 1
    endloop
  endfacet
  facet normal -1 -0 0
    outer loop
      vertex 3 133 2
      vertex 3 6.99698 1
      vertex 3 6.99698 2
    endloop
  endfacet
  facet normal 0 0 1
    outer loop
      vertex 3 6.99698 2
      vertex 7 133 2
      vertex 3 133 2
    endloop
  endfacet
  facet normal 0 0 1
    outer loop
      vertex 7 133 2
      vertex 3 6.99698 2
      vertex 7 2.99698 2
    endloop
  endfacet
  facet normal 1 0 0
    outer loop
      vertex 7 134.176 1.61803
      vertex 7 134.707 1
      vertex 7 134.618 1.17557
    endloop
  endfacet
  facet normal 1 0 0
    outer loop
      vertex 7 133.618 1.90211
      vertex 7 134.707 1
      vertex 7 134.176 1.61803
    endloop
  endfacet
  facet normal 1 0 0
    outer loop
      vertex 7 133 2
      vertex 7 134.707 1
      vertex 7 133.618 1.90211
    endloop
  endfacet
  facet normal 1 0 0
    outer loop
      vertex 7 2.99698 1
      vertex 7 133 2
      vertex 7 2.99698 2
    endloop
  endfacet
  facet normal 1 0 0
    outer loop
      vertex 7 133 2
      vertex 7 2.99698 1
      vertex 7 134.707 1
    endloop
  endfacet
  facet normal -1 0 0
    outer loop
      vertex 13 134.707 1
      vertex 13 134.176 1.61803
      vertex 13 134.618 1.17557
    endloop
  endfacet
  facet normal -1 0 0
    outer loop
      vertex 13 134.707 1
      vertex 13 133.618 1.90211
      vertex 13 134.176 1.61803
    endloop
  endfacet
  facet normal -1 0 0
    outer loop
      vertex 13 134.707 1
      vertex 13 133 2
      vertex 13 133.618 1.90211
    endloop
  endfacet
  facet normal -1 0 0
    outer loop
      vertex 13 2.99698 1
      vertex 13 133 2
      vertex 13 134.707 1
    endloop
  endfacet
  facet normal -1 -0 0
    outer loop
      vertex 13 133 2
      vertex 13 2.99698 1
      vertex 13 2.99698 2
    endloop
  endfacet
  facet normal -0 0 1
    outer loop
      vertex 13 133 2
      vertex 17 6.99698 2
      vertex 17 133 2
    endloop
  endfacet
  facet normal 0 0 1
    outer loop
      vertex 17 6.99698 2
      vertex 13 133 2
      vertex 13 2.99698 2
    endloop
  endfacet
  facet normal 1 0 0
    outer loop
      vertex 17 134.176 1.61803
      vertex 17 134.707 1
      vertex 17 134.618 1.17557
    endloop
  endfacet
  facet normal 1 0 0
    outer loop
      vertex 17 133.618 1.90211
      vertex 17 134.707 1
      vertex 17 134.176 1.61803
    endloop
  endfacet
  facet normal 1 0 0
    outer loop
      vertex 17 133 2
      vertex 17 134.707 1
      vertex 17 133.618 1.90211
    endloop
  endfacet
  facet normal 1 0 0
    outer loop
      vertex 17 6.99698 1
      vertex 17 133 2
      vertex 17 6.99698 2
    endloop
  endfacet
  facet normal 1 0 0
    outer loop
      vertex 17 133 2
      vertex 17 6.99698 1
      vertex 17 134.707 1
    endloop
  endfacet
  facet normal -0 0.156448 0.987686
    outer loop
      vertex 3 133.618 1.90211
      vertex 7 133 2
      vertex 7 133.618 1.90211
    endloop
  endfacet
  facet normal 0 0.156448 0.987686
    outer loop
      vertex 7 133 2
      vertex 3 133.618 1.90211
      vertex 3 133 2
    endloop
  endfacet
  facet normal -0 0.156448 0.987686
    outer loop
      vertex 13 133.618 1.90211
      vertex 17 133 2
      vertex 17 133.618 1.90211
    endloop
  endfacet
  facet normal 0 0.156448 0.987686
    outer loop
      vertex 17 133 2
      vertex 13 133.618 1.90211
      vertex 13 133 2
    endloop
  endfacet
  facet normal 0 0.98766 0.156611
    outer loop
      vertex 20 135 0
      vertex 0 134.902 0.618033
      vertex 20 134.902 0.618033
    endloop
  endfacet
  facet normal 0 0.98766 0.156611
    outer loop
      vertex 0 134.902 0.618033
      vertex 20 135 0
      vertex 0 135 0
    endloop
  endfacet
  facet normal -0 0.453692 0.891158
    outer loop
      vertex 3 134.176 1.61803
      vertex 7 133.618 1.90211
      vertex 7 134.176 1.61803
    endloop
  endfacet
  facet normal 0 0.453692 0.891158
    outer loop
      vertex 7 133.618 1.90211
      vertex 3 134.176 1.61803
      vertex 3 133.618 1.90211
    endloop
  endfacet
  facet normal -0 0.453692 0.891158
    outer loop
      vertex 13 134.176 1.61803
      vertex 17 133.618 1.90211
      vertex 17 134.176 1.61803
    endloop
  endfacet
  facet normal 0 0.453692 0.891158
    outer loop
      vertex 17 133.618 1.90211
      vertex 13 134.176 1.61803
      vertex 13 133.618 1.90211
    endloop
  endfacet
  facet normal 0 0.89065 0.45469
    outer loop
      vertex 20 134.902 0.618033
      vertex 17 134.707 1
      vertex 20 134.707 1
    endloop
  endfacet
  facet normal 0 0.89065 0.45469
    outer loop
      vertex 17 134.707 1
      vertex 20 134.902 0.618033
      vertex 13 134.707 1
    endloop
  endfacet
  facet normal 0 0.89065 0.45469
    outer loop
      vertex 13 134.707 1
      vertex 20 134.902 0.618033
      vertex 7 134.707 1
    endloop
  endfacet
  facet normal -0 0.89065 0.45469
    outer loop
      vertex 0 134.902 0.618033
      vertex 7 134.707 1
      vertex 20 134.902 0.618033
    endloop
  endfacet
  facet normal 0 0.89065 0.45469
    outer loop
      vertex 7 134.707 1
      vertex 0 134.902 0.618033
      vertex 3 134.707 1
    endloop
  endfacet
  facet normal 0 0.89065 0.45469
    outer loop
      vertex 3 134.707 1
      vertex 0 134.902 0.618033
      vertex 0 134.707 1
    endloop
  endfacet
  facet normal 0 0.891945 0.452145
    outer loop
      vertex 17 134.707 1
      vertex 13 134.618 1.17557
      vertex 17 134.618 1.17557
    endloop
  endfacet
  facet normal 0 0.891945 0.452145
    outer loop
      vertex 13 134.618 1.17557
      vertex 17 134.707 1
      vertex 13 134.707 1
    endloop
  endfacet
  facet normal 0 0.891945 0.452145
    outer loop
      vertex 7 134.707 1
      vertex 3 134.618 1.17557
      vertex 7 134.618 1.17557
    endloop
  endfacet
  facet normal 0 0.891945 0.452145
    outer loop
      vertex 3 134.618 1.17557
      vertex 7 134.707 1
      vertex 3 134.707 1
    endloop
  endfacet
  facet normal 0 0.707474 0.706739
    outer loop
      vertex 7 134.618 1.17557
      vertex 3 134.176 1.61803
      vertex 7 134.176 1.61803
    endloop
  endfacet
  facet normal 0 0.707474 0.706739
    outer loop
      vertex 3 134.176 1.61803
      vertex 7 134.618 1.17557
      vertex 3 134.618 1.17557
    endloop
  endfacet
  facet normal 0 0.707474 0.706739
    outer loop
      vertex 17 134.618 1.17557
      vertex 13 134.176 1.61803
      vertex 17 134.176 1.61803
    endloop
  endfacet
  facet normal 0 0.707474 0.706739
    outer loop
      vertex 13 134.176 1.61803
      vertex 17 134.618 1.17557
      vertex 13 134.618 1.17557
    endloop
  endfacet
  facet normal -0.707107 -0.707107 0
    outer loop
      vertex 0 9.99698 0
      vertex 3 6.99698 1
      vertex 0 9.99698 1
    endloop
  endfacet
  facet normal -0.707107 -0.707107 0
    outer loop
      vertex 3 6.99698 1
      vertex 7 2.99698 1
      vertex 3 6.99698 2
    endloop
  endfacet
  facet normal -0.707107 -0.707107 -1.25607e-15
    outer loop
      vertex 0 9.99698 0
      vertex 7 2.99698 1
      vertex 3 6.99698 1
    endloop
  endfacet
  facet normal -0.707107 -0.707107 -5.02581e-16
    outer loop
      vertex 9.99698 0 0
      vertex 7 2.99698 1
      vertex 0 9.99698 0
    endloop
  endfacet
  facet normal -0.707107 -0.707107 0
    outer loop
      vertex 7 2.99698 1
      vertex 9.99698 0 0
      vertex 9.99698 0 1
    endloop
  endfacet
  facet normal -0.707107 -0.707107 0
    outer loop
      vertex 3 6.99698 2
      vertex 7 2.99698 1
      vertex 7 2.99698 2
    endloop
  endfacet
  facet normal 0.707104 -0.707109 0
    outer loop
      vertex 10.003 0 0
      vertex 13 2.99698 1
      vertex 10.003 0 1
    endloop
  endfacet
  facet normal 0.707107 -0.707107 -1.41421e-05
    outer loop
      vertex 13 2.99698 1
      vertex 10.003 0 0
      vertex 17 6.99698 1
    endloop
  endfacet
  facet normal 0.707106 -0.707107 -4.24392e-06
    outer loop
      vertex 20 9.99698 0
      vertex 17 6.99698 1
      vertex 10.003 0 0
    endloop
  endfacet
  facet normal 0.707107 -0.707107 0
    outer loop
      vertex 17 6.99698 1
      vertex 20 9.99698 0
      vertex 20 9.99698 1
    endloop
  endfacet
  facet normal 0.707107 -0.707107 0
    outer loop
      vertex 13 2.99698 1
      vertex 17 6.99698 2
      vertex 13 2.99698 2
    endloop
  endfacet
  facet normal 0.707107 -0.707107 0
    outer loop
      vertex 17 6.99698 2
      vertex 13 2.99698 1
      vertex 17 6.99698 1
    endloop
  endfacet
endsolid OpenSCAD_Model
